<?xml version="1.0" encoding="UTF-8"?>
<svg id="Layer_2" data-name="Layer 2" xmlns="http://www.w3.org/2000/svg" viewBox="0 0 154.3 154.35">
  <defs>
    <style>
      .cls-1 {
        fill: #2b2724;
      }
    </style>
  </defs>
  <g id="Layer_1-2" data-name="Layer 1">
    <g>
      <g>
        <path class="cls-1" d="M116.28,38c-10.47-10.47-24.39-16.23-39.19-16.23s-28.72,5.77-39.19,16.23c-10.47,10.47-16.23,24.39-16.23,39.19s5.77,28.72,16.23,39.19c10.47,10.47,24.39,16.23,39.19,16.23s28.72-5.77,39.19-16.23c10.47-10.47,16.23-24.39,16.23-39.19s-5.77-28.72-16.23-39.19ZM25.69,77.19c0-25.8,19.01-47.15,43.78-50.83-4.12,10.36-6.93,21.85-8.32,33.94-2.8-1.09-5.38-2.9-7.58-5.35-.74-.83-2.02-.9-2.84-.15s-.9,2.02-.15,2.84c2.9,3.23,6.38,5.54,10.17,6.79-.38,4.3-.58,8.67-.59,13.08h-8.07c-1.11,0-2.01.9-2.01,2.01s.9,2.01,2.01,2.01h27.53l7.64-7.64c.4-.4.94-.63,1.51-.63,1.18,0,2.14.96,2.14,2.14v6.13h4.33c1.96,0,3.62,1.24,4.27,2.97h-6.88c-1.11,0-2.01.9-2.01,2.01s.9,2.01,2.01,2.01h7.17v2.1h-7.17c-1.11,0-2.01.9-2.01,2.01s.9,2.01,2.01,2.01h6.83c-.69,1.66-2.32,2.83-4.22,2.83h-23.07l-5.18-5.18c-1.24-1.24-2.89-1.93-4.65-1.93-3.63,0-6.58,2.95-6.58,6.58v.53h-2.35c-4.74,0-8.59,3.85-8.59,8.59v7.84c0,1.48.38,2.87,1.04,4.09-12.26-9.39-20.17-24.18-20.17-40.82ZM77.08,128.59c-8.79,0-17.07-2.21-24.31-6.1.21.02.42.03.63.03h33.38c1.11,0,2.01-.9,2.01-2.01s-.9-2.01-2.01-2.01h-33.38c-2.06,0-3.81-1.38-4.37-3.26h8.73c1.11,0,2.01-.9,2.01-2.01s-.9-2.01-2.01-2.01h-8.92v-2.1h8.92c1.11,0,2.01-.9,2.01-2.01s-.9-2.01-2.01-2.01h-8.81c.46-2.03,2.28-3.56,4.45-3.56h6.37v-4.56c0-1.41,1.14-2.55,2.55-2.55.68,0,1.32.27,1.8.75l6.36,6.36h24.74c4.74,0,8.59-3.85,8.59-8.59v-6.82c0-4.74-3.85-8.59-8.59-8.59h-.3v-2.1c0-3.4-2.77-6.17-6.17-6.17-1.65,0-3.2.64-4.36,1.81l-6.46,6.46h-13.77c.02-4.1.2-8.17.53-12.17.92.12,1.86.19,2.8.19,5.57,0,11.01-2.22,15.33-6.26.81-.76.86-2.03.1-2.85-.76-.81-2.03-.86-2.85-.1-3.62,3.38-7.97,5.17-12.58,5.17-.81,0-1.62-.06-2.41-.18,1.07-9.67,3.07-18.93,5.94-27.52,2.53-.82,3.55.24,6.05,3.27,2.8,3.39,12.11.2,16.92-.82,3.29-.7,9.49-.81,13.08-.81,4.38,3.15,8.24,6.98,11.44,11.33-.16,0-32.45.24-30.85,13.12,1.6,12.91,20.13,5.91,22.75,13.2,2.63,7.29-3.5,11.67,6.13,21.73,3.02,3.16,4.96,4.96,6.21,5.96-8.55,16.51-25.79,27.79-45.67,27.79Z"/>
        <circle class="cls-1" cx="82.56" cy="43.94" r="4.38" transform="translate(-5.97 13.79) rotate(-9.22)"/>
        <circle class="cls-1" cx="54.86" cy="43.94" r="4.38" transform="translate(-6.73 77.8) rotate(-67.5)"/>
      </g>
      <g>
        <path class="cls-1" d="M17.15,28.51c1.2-1.51,2.79-2.39,4.45-2.61.69-.11,1.39.62,1.43,1.36.03.73-.49,1.35-1.13,1.46-.96.14-1.87.65-2.56,1.52-1.39,1.76-.99,4.24.81,5.67,1.81,1.43,4.31,1.25,5.7-.51.68-.87.97-1.87.89-2.84-.03-.66.45-1.3,1.16-1.44.73-.13,1.6.39,1.65,1.08.17,1.66-.32,3.42-1.52,4.93-2.41,3.04-6.65,3.42-9.68,1.03-3.03-2.4-3.63-6.62-1.22-9.66Z"/>
        <path class="cls-1" d="M32.76,28.29l2.92-2.61c.48-.43,1.26-.36,1.72.15.43.48.42,1.29-.04,1.73l-4.21,3.77c-.54.49-1.22.35-1.66-.15l-7.4-8.28c-.46-.54-.38-1.46.18-1.96.59-.53,1.48-.5,1.96.04l6.54,7.31Z"/>
        <path class="cls-1" d="M38.2,10.57c.55-.35,1.3-.16,1.69.44.35.55.22,1.36-.31,1.7l-3.81,2.46,1.69,2.62,3.29-2.12c.55-.35,1.29-.18,1.67.4.35.55.21,1.34-.32,1.68l-3.29,2.12,1.58,2.45,3.96-2.55c.55-.35,1.3-.16,1.68.42.35.55.22,1.36-.31,1.7l-5.41,3.49c-.61.39-1.24.15-1.62-.41l-6.03-9.35c-.35-.57-.31-1.25.3-1.65l5.27-3.4Z"/>
        <path class="cls-1" d="M49.35,16.47l.1,2.65c.02.72-.62,1.33-1.39,1.39-.75.05-1.45-.61-1.49-1.32l-.44-11.25c-.03-.89.36-1.6,1.29-1.99l.11-.05c.93-.39,1.71-.16,2.31.49l7.68,8.24c.48.53.45,1.5-.11,1.99-.58.5-1.47.53-1.96,0l-1.81-1.94-4.29,1.79ZM51.81,12.74l-3.09-3.84.54,4.9,2.55-1.06Z"/>
        <path class="cls-1" d="M69.18,12.65c.16.79-.3,1.53-.97,1.66l-.25.05c-.58.12-1.1.02-1.7-.66l-5.58-6.35,1.38,6.84c.14.71-.37,1.44-1.15,1.6-.73.15-1.53-.33-1.67-1.03l-2.16-10.74c-.16-.81.31-1.57,1-1.71l.25-.05c.6-.12,1.16-.03,1.76.67l5.46,6.26-1.36-6.74c-.14-.7.41-1.45,1.15-1.6.77-.16,1.53.31,1.67,1.03l2.17,10.78Z"/>
        <path class="cls-1" d="M74.88,12.49c.04.73-.58,1.37-1.36,1.42-.75.04-1.47-.55-1.51-1.26l-.61-11.07c-.02-.71.61-1.38,1.36-1.42.79-.04,1.47.53,1.51,1.26l.61,11.07Z"/>
        <path class="cls-1" d="M87.8,13.05c-.07.8-.71,1.38-1.4,1.32l-.26-.02c-.59-.05-1.06-.29-1.45-1.11l-3.57-7.66-.6,6.95c-.06.73-.76,1.28-1.55,1.21-.75-.06-1.38-.75-1.32-1.46l.94-10.91c.07-.82.74-1.42,1.44-1.36l.26.02c.61.05,1.12.29,1.5,1.14l3.48,7.54.59-6.85c.06-.71.8-1.27,1.55-1.21.78.07,1.38.73,1.32,1.46l-.95,10.95Z"/>
        <path class="cls-1" d="M96,16.76c-3.73-1.14-5.74-5.01-4.62-8.67,1.13-3.69,4.96-5.78,8.69-4.63,1.6.49,2.81,1.4,3.64,2.6.38.53-.03,1.58-.7,1.89-.62.26-1.32.07-1.69-.41-.46-.64-1.2-1.13-2.07-1.4-2.19-.67-4.45.6-5.12,2.8-.67,2.19.5,4.48,2.69,5.15,1.49.46,2.84.15,3.84-1.09l-2.56-.79c-.58-.18-.95-.87-.77-1.45.2-.64.85-.98,1.46-.79l4.84,1.48c.64.2.78.61.49,1.28-1.72,3.99-4.67,5.08-8.12,4.03Z"/>
        <path class="cls-1" d="M117.49,14.55l-5.16,8.33c-.38.62-1.26.8-1.93.38-.64-.39-.89-1.29-.52-1.9l5.16-8.33-2.21-1.37c-.52-.32-.68-1.14-.34-1.7.37-.6,1.13-.81,1.68-.47l6.87,4.25c.55.34.7,1.11.33,1.71-.34.55-1.15.77-1.67.45l-2.21-1.37Z"/>
        <path class="cls-1" d="M124.55,32.87c-.49.54-1.38.55-1.97.02-.55-.5-.64-1.43-.16-1.96l2.84-3.12-3.57-3.25-2.84,3.12c-.49.54-1.38.55-1.97.02-.55-.5-.64-1.43-.16-1.96l7.47-8.2c.49-.51,1.41-.53,1.97-.02.58.53.65,1.42.16,1.96l-2.89,3.18,3.57,3.25,2.89-3.18c.49-.51,1.41-.53,1.97-.02.58.53.65,1.42.16,1.96l-7.47,8.2Z"/>
        <path class="cls-1" d="M129.39,35.74l-2.55.73c-.69.19-1.44-.29-1.68-1.01-.23-.71.25-1.55.93-1.76l10.83-3.12c.85-.24,1.64-.04,2.24.77l.07.1c.6.81.56,1.62.08,2.37l-6.17,9.43c-.4.59-1.35.8-1.96.37-.62-.45-.86-1.3-.47-1.9l1.45-2.22-2.76-3.74ZM133.6,37.23l2.99-3.92-4.62,1.7,1.64,2.22Z"/>
        <path class="cls-1" d="M144.06,44.46l-8.71,4.47c-.65.33-1.49.03-1.85-.67-.34-.67-.1-1.57.53-1.89l8.71-4.47-1.19-2.31c-.28-.54,0-1.33.58-1.63.63-.32,1.38-.11,1.68.47l3.69,7.18c.3.58.03,1.31-.6,1.64-.58.3-1.38.07-1.66-.47l-1.19-2.31Z"/>
        <path class="cls-1" d="M138.06,58.95c-.16-.71.31-1.24.94-1.38l10.85-2.46c.66-.13,1.28.13,1.44.84l.92,4.07c.86,3.8-1.53,6.63-5.29,7.48-3.75.85-7.08-.68-7.94-4.48l-.92-4.07ZM140.9,60.09l.54,2.38c.48,2.11,2.68,2.73,4.85,2.23,2.19-.5,3.93-2,3.45-4.11l-.54-2.38-8.3,1.88Z"/>
        <path class="cls-1" d="M154.3,76.65c.06,3.86-3,6.95-6.86,7.01-3.82.06-6.98-2.92-7.05-6.78-.06-3.84,3-6.93,6.82-6.99,3.86-.06,7.02,2.92,7.09,6.76ZM143.19,76.83c.04,2.3,1.94,3.99,4.2,3.95,2.27-.04,4.15-1.78,4.11-4.09-.04-2.3-1.98-3.97-4.24-3.93-2.27.04-4.11,1.76-4.07,4.07Z"/>
        <path class="cls-1" d="M152.05,95.41c-.12.64-.79,1.05-1.48.91-.64-.12-1.13-.78-1.01-1.4l.87-4.45-3.05-.6-.75,3.85c-.12.64-.77,1.05-1.44.92-.64-.12-1.11-.78-.99-1.4l.75-3.85-2.86-.56-.9,4.62c-.12.64-.79,1.05-1.46.92-.64-.12-1.13-.78-1.01-1.4l1.24-6.32c.14-.71.76-1,1.42-.89l10.92,2.14c.65.15,1.12.64.98,1.36l-1.2,6.15Z"/>
        <path class="cls-1" d="M141.94,97.53c0,.82-.64,1.36-1.27,1.42-.68.06-1.54.45-1.97,1.59-.41,1.09-.18,2.04.64,2.37.56.23,1.16.16,2.02-.99l1-1.37c1.92-2.47,3.71-2.35,4.85-1.92,2.27.86,3.07,3.37,2.15,5.8-.69,1.83-2,2.89-3.58,3.07-.73.08-1.22-.4-1.34-.97-.17-.82.23-1.34.95-1.58.88-.28,1.35-.9,1.57-1.47.35-.94.07-1.85-.69-2.13-.33-.12-.99-.23-1.81.88l-1.01,1.34c-2.05,2.74-3.95,2.53-5.15,2.04-2.51-.99-2.85-3.73-2-5.98.85-2.25,2.55-3.46,4.4-3.39.72.04,1.24.57,1.24,1.29Z"/>
        <path class="cls-1" d="M129.89,115.14c-.69-.42-.92-1.25-.56-1.84l.13-.22c.31-.5.73-.82,1.64-.8l8.45.2-5.96-3.62c-.62-.38-.81-1.25-.4-1.92.39-.64,1.28-.9,1.89-.53l9.36,5.68c.71.43.95,1.29.58,1.89l-.13.22c-.32.52-.76.87-1.69.84l-8.3-.22,5.87,3.57c.61.37.79,1.29.4,1.92-.41.67-1.27.91-1.89.53l-9.39-5.71Z"/>
        <path class="cls-1" d="M132.94,121c.2-.24.46-.26.69-.07.11.09.19.18.24.33.37,1.2,1.07,2.4,2.15,3.48.34.36.63.59.6,1.05-.02.65-.52,1.45-.97,1.44-.2-.04-.37-.2-.6-.44-2.11-2.25-2.95-4.74-2.1-5.78Z"/>
        <path class="cls-1" d="M127.7,131.89l-6.79-7.05c-.51-.53-.46-1.42.11-1.96.54-.52,1.47-.54,1.96-.03l6.79,7.05,1.87-1.8c.44-.42,1.27-.38,1.73.09.49.51.5,1.29.04,1.74l-5.82,5.6c-.47.45-1.25.41-1.74-.1-.45-.47-.46-1.3-.02-1.73l1.87-1.8Z"/>
        <path class="cls-1" d="M114.65,144.68c-1.67.96-3.48,1.18-5.1.78-.68-.15-1.06-1.09-.83-1.8.24-.69.95-1.07,1.6-.94.95.23,1.98.09,2.94-.46,1.95-1.12,2.49-3.57,1.34-5.57-1.15-2-3.54-2.76-5.49-1.64-.96.55-1.6,1.37-1.88,2.31-.21.62-.9,1.04-1.61.91-.72-.15-1.34-.95-1.14-1.62.46-1.61,1.56-3.06,3.23-4.02,3.36-1.94,7.45-.72,9.38,2.63,1.93,3.35.92,7.49-2.44,9.43Z"/>
        <path class="cls-1" d="M100.37,150.83c-3.68,1.16-7.51-.89-8.68-4.57-1.15-3.64.8-7.53,4.48-8.69,3.66-1.16,7.49.9,8.64,4.54,1.16,3.68-.79,7.56-4.45,8.72ZM97.02,140.23c-2.2.69-3.27,3-2.59,5.16s2.89,3.47,5.09,2.77,3.24-3.03,2.55-5.19-2.86-3.43-5.06-2.74Z"/>
        <path class="cls-1" d="M88.1,144.25c-.73.37-1.5.04-1.83-.5-.36-.58-1.09-1.17-2.31-1.05-1.16.12-1.9.75-1.83,1.64.04.61.37,1.11,1.79,1.36l1.67.28c3.07.61,3.76,2.26,3.89,3.48.25,2.41-1.64,4.25-4.22,4.52-1.94.2-3.48-.49-4.35-1.82-.4-.61-.19-1.27.27-1.63.66-.52,1.31-.39,1.84.15.64.67,1.41.8,2.02.74,1-.1,1.68-.77,1.6-1.57-.04-.35-.24-.99-1.59-1.22l-1.66-.3c-3.37-.6-4.03-2.39-4.13-3.69-.24-2.69,2.06-4.21,4.45-4.46,2.39-.25,4.23.73,5,2.41.29.66.04,1.36-.6,1.69Z"/>
        <path class="cls-1" d="M71.05,151.48l.6-9.78c.04-.73.73-1.3,1.52-1.25.75.05,1.4.72,1.35,1.43l-.6,9.78,2.6.16c.61.04,1.14.68,1.1,1.33-.04.71-.61,1.25-1.26,1.21l-8.06-.49c-.65-.04-1.15-.64-1.1-1.35.04-.65.65-1.22,1.26-1.19l2.6.16Z"/>
        <path class="cls-1" d="M55.03,148.4l2.71-9.41c.2-.7,1-1.11,1.75-.89.72.21,1.21,1,1.01,1.69l-2.71,9.41,2.5.72c.59.17.97.92.79,1.54-.2.68-.87,1.08-1.49.9l-7.76-2.24c-.62-.18-.98-.88-.78-1.56.18-.62.9-1.05,1.49-.88l2.5.72Z"/>
        <path class="cls-1" d="M43.29,132.65c.33-.65,1.18-.9,1.89-.55.67.34,1,1.21.68,1.84l-1.9,3.77,4.31,2.17,1.9-3.77c.33-.65,1.18-.9,1.89-.55.67.34,1,1.21.68,1.84l-4.99,9.91c-.34.62-1.22.89-1.89.55-.7-.35-1.01-1.19-.68-1.84l1.93-3.83-4.31-2.17-1.93,3.83c-.34.62-1.22.89-1.89.55-.7-.35-1.01-1.19-.68-1.84l4.99-9.91Z"/>
        <path class="cls-1" d="M27.69,136.42c-.52-.39-.59-1.17-.16-1.73.39-.52,1.2-.67,1.7-.29l3.6,2.75,1.89-2.47-3.12-2.38c-.52-.39-.6-1.16-.19-1.7.39-.52,1.19-.65,1.69-.27l3.12,2.38,1.77-2.32-3.74-2.86c-.52-.39-.59-1.17-.17-1.72.39-.52,1.2-.67,1.7-.29l5.12,3.91c.58.44.56,1.12.17,1.66l-6.75,8.85c-.42.52-1.07.72-1.65.28l-4.98-3.8Z"/>
        <path class="cls-1" d="M16.7,120.67l3.74-4.82-7.69,2.68c-.67.23-1.47-.25-1.74-.94-.28-.73.15-1.57.85-1.79l10.88-3.58c.67-.23,1.31-.09,1.69.41l.12.16c.39.52.35,1.22-.07,1.75l-3.95,4.95,5.86-2.4c.63-.25,1.31-.09,1.7.43l.12.16c.38.5.33,1.16-.08,1.73l-6.49,9.44c-.41.6-1.34.78-1.96.31-.58-.45-.82-1.36-.41-1.93l4.73-6.62-5.68,2.24c-.57.23-1.12.08-1.54-.47l-.07-.09c-.41-.55-.4-1.13-.02-1.61Z"/>
        <path class="cls-1" d="M5.99,107.34c-1.51-3.55.17-7.56,3.73-9.07,3.52-1.49,7.57.08,9.07,3.64,1.5,3.53-.18,7.54-3.7,9.03-3.55,1.51-7.6-.07-9.1-3.6ZM16.21,103c-.9-2.12-3.29-2.97-5.38-2.08-2.08.88-3.17,3.21-2.27,5.33s3.32,2.93,5.4,2.05c2.08-.88,3.15-3.17,2.25-5.29Z"/>
        <path class="cls-1" d="M9.28,88.06l2.69-2.77c.5-.5,1.42-.42,1.94.17.49.55.48,1.43-.03,1.91l-3.72,3.37.25,1.3,3.48-.68c.72-.14,1.44.38,1.59,1.16.14.73-.34,1.53-1.04,1.67l-10.65,2.07c-.8.13-1.55-.22-1.71-1.07l-.79-4.08c-.58-2.98,1.27-4.8,3.43-5.26,1.75-.28,3.6.36,4.56,2.22ZM4.28,93.23l3.75-.73-.49-2.53c-.21-1.1-1.33-1.49-2.2-1.32-.83.16-1.77.91-1.56,1.97l.51,2.61Z"/>
        <path class="cls-1" d="M11.11,79.36l-.1-3.92c-.02-.65.54-1.2,1.23-1.21.65-.02,1.25.52,1.29,1.15l.14,5.65c.02.73-.52,1.16-1.19,1.17l-11.11.28c-.71,0-1.36-.66-1.38-1.4-.02-.79.57-1.45,1.3-1.47l9.81-.25Z"/>
        <path class="cls-1" d="M13.69,71.77c-.11.72-.74,1.04-1.38.95l-11-1.67c-.66-.12-1.15-.59-1.04-1.31l.63-4.13c.59-3.86,3.84-5.61,7.66-5.03,3.8.58,6.34,3.22,5.76,7.07l-.63,4.13ZM11.46,69.68l.37-2.41c.33-2.14-1.5-3.51-3.7-3.85-2.22-.34-4.39.43-4.71,2.57l-.37,2.41,8.41,1.28Z"/>
        <path class="cls-1" d="M12.39,47.02c.21-.51.83-.7,1.37-.47.53.22.83.82.62,1.31l-2.03,4.81c-.21.49-.85.69-1.37.47-.54-.23-.84-.8-.62-1.31l2.03-4.81Z"/>
      </g>
    </g>
  </g>
</svg>